<svg width="191" height="57" viewBox="0 0 191 57" fill="none" xmlns="http://www.w3.org/2000/svg">
<path d="M124.84 27.422V30.5278H122.894V32.5646H124.84V39.4851C124.84 41.8482 125.909 42.7935 128.599 42.7935C129.072 42.7935 129.522 42.7372 129.916 42.6697V40.6554C129.578 40.6892 129.364 40.7117 128.993 40.7117C127.789 40.7117 127.26 40.1491 127.26 38.8662V32.5646H129.916V30.5278H127.26V27.422H124.84Z" fill="#29394A"/>
<path d="M136.767 42.9623C140.345 42.9623 142.54 40.5654 142.54 36.5931C142.54 32.6433 140.334 30.2352 136.767 30.2352C133.188 30.2352 130.983 32.6433 130.983 36.5931C130.983 40.5654 133.177 42.9623 136.767 42.9623ZM136.767 40.813C134.662 40.813 133.481 39.2713 133.481 36.5931C133.481 33.9374 134.662 32.3845 136.767 32.3845C138.86 32.3845 140.053 33.9374 140.053 36.5931C140.053 39.2601 138.86 40.813 136.767 40.813Z" fill="#29394A"/>
<path d="M144.417 42.726H146.836V35.4903C146.836 33.7686 148.13 32.6096 149.965 32.6096C150.392 32.6096 151.112 32.6883 151.315 32.7559V30.3702C151.056 30.3027 150.595 30.269 150.235 30.269C148.637 30.269 147.275 31.1467 146.926 32.3508H146.746V30.4715H144.417V42.726Z" fill="#29394A"/>
<path d="M157.322 32.2945C159.112 32.2945 160.282 33.5436 160.338 35.4678H154.149C154.284 33.5548 155.533 32.2945 157.322 32.2945ZM160.327 39.4176C159.877 40.3741 158.875 40.903 157.412 40.903C155.477 40.903 154.228 39.5414 154.149 37.3921V37.257H162.802V36.4131C162.802 32.5646 160.743 30.2352 157.334 30.2352C153.879 30.2352 151.685 32.7221 151.685 36.6381C151.685 40.5542 153.834 42.9623 157.345 42.9623C160.147 42.9623 162.105 41.6119 162.656 39.4176H160.327Z" fill="#29394A"/>
<path d="M108.974 38.2006C109.161 41.2097 111.669 43.1342 115.401 43.1342C119.39 43.1342 121.886 41.1164 121.886 37.8974C121.886 35.3664 120.463 33.9668 117.011 33.162L115.156 32.7072C112.963 32.194 112.077 31.5058 112.077 30.3045C112.077 28.7883 113.453 27.7969 115.518 27.7969C117.477 27.7969 118.83 28.7649 119.075 30.3162H121.618C121.466 27.482 118.97 25.4875 115.553 25.4875C111.879 25.4875 109.429 27.482 109.429 30.4795C109.429 32.9521 110.817 34.4217 113.861 35.1331L116.031 35.658C118.259 36.1828 119.238 36.9526 119.238 38.2356C119.238 39.7285 117.699 40.8132 115.599 40.8132C113.348 40.8132 111.785 39.7985 111.564 38.2006H108.974Z" fill="#29394A"/>
<path d="M83.9122 30.269C82.2467 30.269 80.8064 31.1017 80.0637 32.497H79.8836V30.4715H77.5543V46.7995H79.9736V40.8692H80.1649C80.8064 42.1633 82.1905 42.9285 83.9347 42.9285C87.0292 42.9285 88.9985 40.4866 88.9985 36.5931C88.9985 32.6996 87.0292 30.269 83.9122 30.269ZM83.2257 40.7567C81.2002 40.7567 79.9286 39.1588 79.9286 36.6044C79.9286 34.0387 81.2002 32.4408 83.237 32.4408C85.285 32.4408 86.5116 34.0049 86.5116 36.5931C86.5116 39.1926 85.285 40.7567 83.2257 40.7567Z" fill="#29394A"/>
<path d="M97.4643 30.269C95.7989 30.269 94.3585 31.1017 93.6158 32.497H93.4358V30.4715H91.1064V46.7995H93.5258V40.8692H93.7171C94.3585 42.1633 95.7426 42.9285 97.4868 42.9285C100.581 42.9285 102.551 40.4866 102.551 36.5931C102.551 32.6996 100.581 30.269 97.4643 30.269ZM96.7779 40.7567C94.7524 40.7567 93.4808 39.1588 93.4808 36.6044C93.4808 34.0387 94.7524 32.4408 96.7891 32.4408C98.8372 32.4408 100.064 34.0049 100.064 36.5931C100.064 39.1926 98.8372 40.7567 96.7779 40.7567Z" fill="#29394A"/>
<path d="M73.2135 42.726H75.9893L69.9127 25.8958H67.1019L61.0253 42.726H63.7078L65.2591 38.2589H71.6739L73.2135 42.726ZM68.3732 28.9516H68.5715L71.0091 36.0662H65.9239L68.3732 28.9516Z" fill="#29394A"/>
<path d="M62.6503 13.2017V21.3207H65.5817C68.001 21.3207 69.402 19.8297 69.402 17.2359C69.402 14.6815 67.9898 13.2017 65.5817 13.2017H62.6503ZM63.9106 14.3495H65.441C67.1233 14.3495 68.1192 15.4186 68.1192 17.2528C68.1192 19.1151 67.1402 20.1729 65.441 20.1729H63.9106V14.3495Z" fill="#29394A"/>
<path d="M73.6928 21.4389C75.482 21.4389 76.5792 20.2404 76.5792 18.2543C76.5792 16.2794 75.4764 15.0753 73.6928 15.0753C71.9036 15.0753 70.8008 16.2794 70.8008 18.2543C70.8008 20.2404 71.8979 21.4389 73.6928 21.4389ZM73.6928 20.3642C72.6406 20.3642 72.0499 19.5934 72.0499 18.2543C72.0499 16.9265 72.6406 16.15 73.6928 16.15C74.7393 16.15 75.3357 16.9265 75.3357 18.2543C75.3357 19.5878 74.7393 20.3642 73.6928 20.3642Z" fill="#29394A"/>
<path d="M85.9225 15.1935H84.7128L83.6213 19.8691H83.5256L82.2653 15.1935H81.1062L79.8459 19.8691H79.7559L78.6587 15.1935H77.4321L79.1201 21.3207H80.3635L81.6239 16.8083H81.7195L82.9855 21.3207H84.2402L85.9225 15.1935Z" fill="#29394A"/>
<path d="M87.3156 21.3207H88.5253V17.7367C88.5253 16.7802 89.0936 16.1838 89.9882 16.1838C90.8828 16.1838 91.3104 16.6733 91.3104 17.6579V21.3207H92.5201V17.3541C92.5201 15.8968 91.7661 15.0753 90.3989 15.0753C89.4762 15.0753 88.8685 15.4861 88.5703 16.1669H88.4803V15.1935H87.3156V21.3207Z" fill="#29394A"/>
<path d="M94.4252 21.3207H95.6349V12.8022H94.4252V21.3207Z" fill="#29394A"/>
<path d="M100.184 21.4389C101.974 21.4389 103.071 20.2404 103.071 18.2543C103.071 16.2794 101.968 15.0753 100.184 15.0753C98.3953 15.0753 97.2925 16.2794 97.2925 18.2543C97.2925 20.2404 98.3896 21.4389 100.184 21.4389ZM100.184 20.3642C99.1323 20.3642 98.5415 19.5934 98.5415 18.2543C98.5415 16.9265 99.1323 16.15 100.184 16.15C101.231 16.15 101.827 16.9265 101.827 18.2543C101.827 19.5878 101.231 20.3642 100.184 20.3642Z" fill="#29394A"/>
<path d="M106.675 20.4036C106.017 20.4036 105.539 20.0829 105.539 19.5315C105.539 18.9914 105.921 18.7044 106.765 18.6482L108.262 18.5525V19.0645C108.262 19.8241 107.587 20.4036 106.675 20.4036ZM106.366 21.422C107.17 21.422 107.84 21.0732 108.206 20.4599H108.301V21.3207H109.466V17.1346C109.466 15.8405 108.599 15.0753 107.063 15.0753C105.674 15.0753 104.683 15.7505 104.56 16.8027H105.73C105.865 16.3694 106.332 16.1219 107.007 16.1219C107.834 16.1219 108.262 16.4876 108.262 17.1346V17.6635L106.602 17.7592C105.145 17.8492 104.323 18.485 104.323 19.5878C104.323 20.7074 105.184 21.422 106.366 21.422Z" fill="#29394A"/>
<path d="M113.571 21.422C114.415 21.422 115.13 21.0225 115.495 20.353H115.591V21.3207H116.75V12.8022H115.54V16.1669H115.45C115.118 15.4917 114.409 15.0922 113.571 15.0922C112.024 15.0922 111.028 16.3188 111.028 18.2543C111.028 20.1954 112.012 21.422 113.571 21.422ZM113.914 16.1781C114.927 16.1781 115.563 16.9827 115.563 18.2599C115.563 19.5428 114.933 20.3361 113.914 20.3361C112.89 20.3361 112.277 19.554 112.277 18.2543C112.277 16.9658 112.896 16.1781 113.914 16.1781Z" fill="#29394A"/>
<path d="M124.594 21.4389C126.384 21.4389 127.481 20.2404 127.481 18.2543C127.481 16.2794 126.378 15.0753 124.594 15.0753C122.805 15.0753 121.702 16.2794 121.702 18.2543C121.702 20.2404 122.8 21.4389 124.594 21.4389ZM124.594 20.3642C123.542 20.3642 122.951 19.5934 122.951 18.2543C122.951 16.9265 123.542 16.15 124.594 16.15C125.641 16.15 126.237 16.9265 126.237 18.2543C126.237 19.5878 125.641 20.3642 124.594 20.3642Z" fill="#29394A"/>
<path d="M129.082 21.3207H130.292V17.7367C130.292 16.7802 130.86 16.1838 131.755 16.1838C132.649 16.1838 133.077 16.6733 133.077 17.6579V21.3207H134.287V17.3541C134.287 15.8968 133.533 15.0753 132.165 15.0753C131.243 15.0753 130.635 15.4861 130.337 16.1669H130.247V15.1935H129.082V21.3207Z" fill="#29394A"/>
<path d="M139.858 13.6687V15.2216H138.884V16.24H139.858V19.7003C139.858 20.8819 140.392 21.3545 141.737 21.3545C141.973 21.3545 142.198 21.3264 142.395 21.2926V20.2855C142.227 20.3023 142.12 20.3136 141.934 20.3136C141.332 20.3136 141.068 20.0323 141.068 19.3908V16.24H142.395V15.2216H141.068V13.6687H139.858Z" fill="#29394A"/>
<path d="M144.019 21.3207H145.229V17.7423C145.229 16.8139 145.78 16.1894 146.771 16.1894C147.626 16.1894 148.082 16.6845 148.082 17.6635V21.3207H149.291V17.3653C149.291 15.9081 148.487 15.081 147.181 15.081C146.259 15.081 145.611 15.4917 145.313 16.1781H145.218V12.8022H144.019V21.3207Z" fill="#29394A"/>
<path d="M153.655 16.105C154.55 16.105 155.135 16.7295 155.163 17.6917H152.068C152.136 16.7352 152.76 16.105 153.655 16.105ZM155.157 19.6665C154.932 20.1448 154.432 20.4092 153.7 20.4092C152.732 20.4092 152.108 19.7284 152.068 18.6538V18.5863H156.395V18.1643C156.395 16.24 155.366 15.0753 153.661 15.0753C151.933 15.0753 150.836 16.3188 150.836 18.2768C150.836 20.2348 151.911 21.4389 153.666 21.4389C155.067 21.4389 156.046 20.7637 156.322 19.6665H155.157Z" fill="#29394A"/>
<path d="M47.8979 28.9135C47.9272 26.6347 49.151 24.4784 51.0925 23.2848C49.8677 21.5355 47.8163 20.4265 45.6819 20.3597C43.4054 20.1208 41.1985 21.7219 40.0385 21.7219C38.856 21.7219 37.0699 20.3834 35.1466 20.423C32.6397 20.504 30.3026 21.9293 29.0829 24.121C26.4611 28.6603 28.4167 35.3315 30.9282 39.0007C32.1848 40.7975 33.6533 42.8044 35.5749 42.7333C37.4552 42.6553 38.1575 41.5342 40.4273 41.5342C42.676 41.5342 43.3349 42.7333 45.2954 42.688C47.3131 42.6553 48.5844 40.8833 49.7969 39.0696C50.6997 37.7894 51.3944 36.3744 51.8553 34.8772C49.4841 33.8743 47.9006 31.4881 47.8979 28.9135Z" fill="#29394A"/>
<path d="M44.1947 17.9467C45.2948 16.626 45.8368 14.9285 45.7056 13.2146C44.0248 13.3911 42.4722 14.1944 41.3572 15.4644C40.2669 16.7053 39.6995 18.373 39.8067 20.0213C41.4881 20.0386 43.1411 19.2571 44.1947 17.9467Z" fill="#29394A"/>
<rect x="0.5" y="0.5" width="190" height="56" rx="6.56329" stroke="#A6AEB8"/>
</svg>
