<svg width="191" height="57" viewBox="0 0 191 57" fill="none" xmlns="http://www.w3.org/2000/svg">
<path d="M96.2299 30.6041C93.1325 30.6041 90.6079 32.9601 90.6079 36.2051C90.6079 39.4303 93.1325 41.806 96.2299 41.806C99.3287 41.806 101.853 39.4303 101.853 36.2051C101.852 32.9601 99.3274 30.6041 96.2299 30.6041ZM96.2299 39.6015C94.5324 39.6015 93.0693 38.2016 93.0693 36.2064C93.0693 34.1901 94.5337 32.8113 96.2299 32.8113C97.9275 32.8113 99.3906 34.1901 99.3906 36.2064C99.3906 38.2002 97.9275 39.6015 96.2299 39.6015ZM83.9639 30.6041C80.8664 30.6041 78.3419 32.9601 78.3419 36.2051C78.3419 39.4303 80.8664 41.806 83.9639 41.806C87.0627 41.806 89.5873 39.4303 89.5873 36.2051C89.5873 32.9601 87.0627 30.6041 83.9639 30.6041ZM83.9639 39.6015C82.2664 39.6015 80.8032 38.2016 80.8032 36.2064C80.8032 34.1901 82.2677 32.8113 83.9639 32.8113C85.6614 32.8113 87.1246 34.1901 87.1246 36.2064C87.1259 38.2002 85.6614 39.6015 83.9639 39.6015ZM69.3748 32.324V34.6998H75.0613C74.8915 36.0365 74.4463 37.0124 73.7668 37.6906C72.9397 38.5176 71.6452 39.4303 69.3748 39.4303C65.8743 39.4303 63.1377 36.6081 63.1377 33.1076C63.1377 29.6072 65.8743 26.785 69.3748 26.785C71.2633 26.785 72.6421 27.5277 73.6601 28.4825L75.3366 26.806C73.9143 25.4483 72.0271 24.4092 69.3748 24.4092C64.5798 24.4092 60.5486 28.3126 60.5486 33.1076C60.5486 37.9026 64.5798 41.806 69.3748 41.806C71.9626 41.806 73.9156 40.9566 75.4419 39.3657C77.0117 37.7959 77.5003 35.5887 77.5003 33.8069C77.5003 33.2564 77.4582 32.7468 77.3726 32.3227H69.3748V32.324ZM129.043 34.1691C128.577 32.918 127.155 30.6041 124.248 30.6041C121.363 30.6041 118.964 32.8745 118.964 36.2051C118.964 39.3447 121.341 41.806 124.523 41.806C127.09 41.806 128.575 40.2363 129.192 39.3236L127.282 38.0501C126.646 38.9838 125.776 39.5988 124.523 39.5988C123.272 39.5988 122.381 39.026 121.808 37.9013L129.297 34.8038L129.043 34.1691ZM121.405 36.0365C121.341 33.8714 123.081 32.7692 124.334 32.7692C125.309 32.7692 126.136 33.2577 126.413 33.957L121.405 36.0365ZM115.316 41.4676H117.777V25.0044H115.316V41.4676ZM111.284 31.8565H111.2C110.648 31.198 109.586 30.6041 108.251 30.6041C105.45 30.6041 102.883 33.0655 102.883 36.2275C102.883 39.3671 105.45 41.8074 108.251 41.8074C109.588 41.8074 110.648 41.2134 111.2 40.5352H111.284V41.3412C111.284 43.4838 110.138 44.6296 108.293 44.6296C106.787 44.6296 105.853 43.5484 105.471 42.6357L103.328 43.5273C103.943 45.0115 105.576 46.8368 108.293 46.8368C111.179 46.8368 113.619 45.1392 113.619 41.0014V30.9452H111.285V31.8565H111.284ZM108.463 39.6015C106.766 39.6015 105.345 38.1792 105.345 36.2275C105.345 34.2534 106.766 32.8113 108.463 32.8113C110.138 32.8113 111.454 34.2534 111.454 36.2275C111.454 38.1792 110.138 39.6015 108.463 39.6015ZM140.572 25.0044H134.683V41.4676H137.14V35.2305H140.57C143.294 35.2305 145.972 33.2591 145.972 30.1181C145.972 26.9772 143.295 25.0044 140.572 25.0044ZM140.635 32.939H137.14V27.2959H140.635C142.472 27.2959 143.515 28.817 143.515 30.1181C143.515 31.3929 142.472 32.939 140.635 32.939ZM155.822 30.5751C154.043 30.5751 152.2 31.3587 151.438 33.0958L153.619 34.0058C154.085 33.0958 154.954 32.7981 155.864 32.7981C157.135 32.7981 158.427 33.5606 158.448 34.9158V35.0857C158.003 34.8315 157.049 34.4509 155.885 34.4509C153.534 34.4509 151.14 35.7428 151.14 38.1568C151.14 40.36 153.068 41.7784 155.228 41.7784C156.879 41.7784 157.791 41.037 158.362 40.1678H158.446V41.4386H160.82V35.1265C160.821 32.2055 158.637 30.5751 155.822 30.5751ZM155.524 39.5975C154.721 39.5975 153.597 39.1945 153.597 38.1989C153.597 36.9281 154.996 36.4408 156.204 36.4408C157.282 36.4408 157.792 36.6739 158.448 36.9913C158.257 38.5176 156.944 39.5975 155.524 39.5975ZM169.461 30.9347L166.644 38.0725H166.56L163.637 30.9347H160.99L165.374 40.9105L162.874 46.4601H165.437L172.194 30.9347H169.461ZM147.329 41.4676H149.785V25.0044H147.329V41.4676Z" fill="#29394A"/>
<path d="M68.945 15.4486C68.945 16.5522 68.6184 17.4306 67.9639 18.0864C67.2211 18.8661 66.2519 19.2559 65.0613 19.2559C63.9209 19.2559 62.9503 18.8608 62.1535 18.0706C61.3555 17.2791 60.9564 16.2993 60.9564 15.1299C60.9564 13.9591 61.3555 12.9793 62.1535 12.1891C62.9503 11.3977 63.9209 11.0026 65.0613 11.0026C65.6276 11.0026 66.1689 11.1132 66.6825 11.3331C67.1974 11.5544 67.6096 11.8481 67.9178 12.2155L67.2238 12.9108C66.7009 12.2853 65.9806 11.9732 65.06 11.9732C64.2277 11.9732 63.5087 12.2655 62.9015 12.8503C62.2944 13.435 61.9915 14.1949 61.9915 15.1286C61.9915 16.0623 62.2944 16.8222 62.9015 17.4069C63.5087 17.9916 64.2277 18.284 65.06 18.284C65.9424 18.284 66.6786 17.9903 67.2672 17.4016C67.6491 17.0184 67.8704 16.485 67.9297 15.8015H65.06V14.852H68.8884C68.9279 15.0588 68.945 15.2576 68.945 15.4486Z" fill="#29394A"/>
<path d="M75.0163 12.1484H71.4184V14.6532H74.6633V15.6027H71.4184V18.1076H75.0163V19.0795H70.403V11.1778H75.0163V12.1484Z" fill="#29394A"/>
<path d="M79.2975 19.0795H78.2822V12.1484H76.0749V11.1778H81.5047V12.1484H79.2975V19.0795Z" fill="#29394A"/>
<path d="M85.4331 19.0795V11.1778H86.4485V19.0795H85.4331Z" fill="#29394A"/>
<path d="M90.9513 19.0795H89.936V12.1484H87.7288V11.1778H93.1585V12.1484H90.9513V19.0795Z" fill="#29394A"/>
<path d="M103.437 18.0588C102.66 18.8569 101.695 19.2559 100.54 19.2559C99.3848 19.2559 98.4195 18.8569 97.6438 18.0588C96.8668 17.2608 96.4796 16.2836 96.4796 15.1286C96.4796 13.9737 96.8668 12.9965 97.6438 12.1984C98.4195 11.4004 99.3848 11 100.54 11C101.688 11 102.652 11.4017 103.432 12.2037C104.211 13.0057 104.601 13.9803 104.601 15.1286C104.601 16.2836 104.213 17.2608 103.437 18.0588ZM98.3931 17.3964C98.9778 17.989 99.6929 18.284 100.54 18.284C101.387 18.284 102.103 17.9877 102.686 17.3964C103.271 16.8038 103.565 16.0479 103.565 15.1286C103.565 14.2094 103.271 13.4535 102.686 12.8608C102.103 12.2682 101.387 11.9732 100.54 11.9732C99.6929 11.9732 98.9778 12.2695 98.3931 12.8608C97.8097 13.4535 97.516 14.2094 97.516 15.1286C97.516 16.0479 97.8097 16.8038 98.3931 17.3964Z" fill="#29394A"/>
<path d="M106.026 19.0795V11.1778H107.261L111.102 17.324H111.145L111.102 15.8016V11.1778H112.117V19.0795H111.057L107.039 12.6343H106.995L107.039 14.1567V19.0795H106.026Z" fill="#29394A"/>
<path d="M68.945 15.4486C68.945 16.5522 68.6184 17.4306 67.9639 18.0864C67.2211 18.8661 66.2519 19.2559 65.0613 19.2559C63.9209 19.2559 62.9503 18.8608 62.1535 18.0706C61.3555 17.2791 60.9564 16.2993 60.9564 15.1299C60.9564 13.9591 61.3555 12.9793 62.1535 12.1891C62.9503 11.3977 63.9209 11.0026 65.0613 11.0026C65.6276 11.0026 66.1689 11.1132 66.6825 11.3331C67.1974 11.5544 67.6096 11.8481 67.9178 12.2155L67.2238 12.9108C66.7009 12.2853 65.9806 11.9732 65.06 11.9732C64.2277 11.9732 63.5087 12.2655 62.9015 12.8503C62.2944 13.435 61.9915 14.1949 61.9915 15.1286C61.9915 16.0623 62.2944 16.8222 62.9015 17.4069C63.5087 17.9916 64.2277 18.284 65.06 18.284C65.9424 18.284 66.6786 17.9903 67.2672 17.4016C67.6491 17.0184 67.8704 16.485 67.9297 15.8015H65.06V14.852H68.8884C68.9279 15.0588 68.945 15.2576 68.945 15.4486Z" stroke="#29394A" stroke-width="0.263389" stroke-miterlimit="10"/>
<path d="M75.0163 12.1484H71.4184V14.6532H74.6633V15.6027H71.4184V18.1076H75.0163V19.0795H70.403V11.1778H75.0163V12.1484Z" stroke="#29394A" stroke-width="0.263389" stroke-miterlimit="10"/>
<path d="M79.2975 19.0795H78.2822V12.1484H76.0749V11.1778H81.5047V12.1484H79.2975V19.0795Z" stroke="#29394A" stroke-width="0.263389" stroke-miterlimit="10"/>
<path d="M85.4331 19.0795V11.1778H86.4485V19.0795H85.4331Z" stroke="#29394A" stroke-width="0.263389" stroke-miterlimit="10"/>
<path d="M90.9513 19.0795H89.936V12.1484H87.7288V11.1778H93.1585V12.1484H90.9513V19.0795Z" stroke="#29394A" stroke-width="0.263389" stroke-miterlimit="10"/>
<path d="M103.437 18.0588C102.66 18.8569 101.695 19.2559 100.54 19.2559C99.3848 19.2559 98.4195 18.8569 97.6438 18.0588C96.8668 17.2608 96.4796 16.2836 96.4796 15.1286C96.4796 13.9737 96.8668 12.9965 97.6438 12.1984C98.4195 11.4004 99.3848 11 100.54 11C101.688 11 102.652 11.4017 103.432 12.2037C104.211 13.0057 104.601 13.9803 104.601 15.1286C104.601 16.2836 104.213 17.2608 103.437 18.0588ZM98.3931 17.3964C98.9778 17.989 99.6929 18.284 100.54 18.284C101.387 18.284 102.103 17.9877 102.686 17.3964C103.271 16.8038 103.565 16.0479 103.565 15.1286C103.565 14.2094 103.271 13.4535 102.686 12.8608C102.103 12.2682 101.387 11.9732 100.54 11.9732C99.6929 11.9732 98.9778 12.2695 98.3931 12.8608C97.8097 13.4535 97.516 14.2094 97.516 15.1286C97.516 16.0479 97.8097 16.8038 98.3931 17.3964Z" stroke="#29394A" stroke-width="0.263389" stroke-miterlimit="10"/>
<path d="M106.026 19.0795V11.1778H107.261L111.102 17.324H111.145L111.102 15.8016V11.1778H112.117V19.0795H111.057L107.039 12.6343H106.995L107.039 14.1567V19.0795H106.026Z" stroke="#29394A" stroke-width="0.263389" stroke-miterlimit="10"/>
<path fill-rule="evenodd" clip-rule="evenodd" d="M19.8736 12.451C19.718 12.8032 19.6321 13.2349 19.6321 13.737V42.8626C19.6321 43.3659 19.7181 43.7976 19.8739 44.1498L35.722 28.2994L19.8736 12.451ZM20.7893 45.0969C21.3767 45.3481 22.1429 45.2684 22.9784 44.7946L41.6226 34.2L36.6532 29.2306L20.7893 45.0969ZM42.8111 33.526L48.6602 30.2028C50.5 29.1558 50.5 27.4451 48.6602 26.3995L42.8086 23.0744L37.5844 28.2993L42.8111 33.526ZM41.621 22.3996L22.9784 11.8064C22.1428 11.3315 21.3765 11.2523 20.789 11.504L36.6532 27.3681L41.621 22.3996Z" fill="#29394A"/>
<rect x="0.5" y="0.5" width="189.709" height="55.5063" rx="6.56329" stroke="#A6AEB8"/>
</svg>
