<svg width="34" height="34" viewBox="0 0 34 34" fill="none" xmlns="http://www.w3.org/2000/svg">
<path d="M16.75 1C25.4685 1 32.5 8.0315 32.5 16.75C32.5 25.4685 25.4685 32.5 16.75 32.5" stroke="white" stroke-width="2" stroke-linecap="round" stroke-linejoin="round"/>
<path d="M16.75 32.5C8.0315 32.5 1 25.4685 1 16.75C1 8.0315 8.0315 1 16.75 1" stroke="white" stroke-width="2" stroke-linecap="round" stroke-linejoin="round"/>
<path fill-rule="evenodd" clip-rule="evenodd" d="M13.544 2.85505C8.48648 11.2988 8.48648 22.2031 13.544 30.6468C15.0245 33.1196 18.4772 33.1196 19.9577 30.6468C25.0152 22.2031 25.0152 11.2988 19.9577 2.85505C18.4755 0.382301 15.0245 0.382301 13.544 2.85505Z" stroke="white" stroke-width="2" stroke-linecap="round" stroke-linejoin="round"/>
<path d="M2.76746 9.50146C11.3285 12.1457 22.1715 12.1457 30.7307 9.50146" stroke="white" stroke-width="2" stroke-linecap="round" stroke-linejoin="round"/>
<path d="M30.7325 23.9984C22.1715 21.3542 11.3285 21.3542 2.76929 23.9984" stroke="white" stroke-width="2" stroke-linecap="round" stroke-linejoin="round"/>
</svg>
