<svg width="42" height="43" viewBox="0 0 42 43" fill="none" xmlns="http://www.w3.org/2000/svg">
<path d="M10.9607 9.70475C13.6738 7.41893 17.1738 6.03979 21.0002 6.03979C29.6346 6.03979 36.6328 13.038 36.6328 21.6723C36.6328 24.1857 36.0248 26.5531 34.9705 28.6566L30.3137 26.3291" stroke="white" stroke-width="2.10294" stroke-linecap="round" stroke-linejoin="round"/>
<path d="M31.0395 33.6399C28.3264 35.9258 24.8264 37.3049 20.9999 37.3049C12.3656 37.3049 5.36743 30.305 5.36743 21.6724C5.36743 19.159 5.97536 16.7916 7.02969 14.6881L11.6864 17.0156" stroke="white" stroke-width="2.10294" stroke-linecap="round" stroke-linejoin="round"/>
<path d="M21.0001 12.9877V15.1589" stroke="white" stroke-width="2.10294" stroke-linecap="round" stroke-linejoin="round"/>
<path d="M21.0001 30.3571V28.1859" stroke="white" stroke-width="2.10294" stroke-linecap="round" stroke-linejoin="round"/>
<path d="M25.3201 18.1985C25.2072 16.5032 23.809 15.1588 22.0859 15.1588H19.7063C18.0215 15.1588 16.658 16.5241 16.658 18.2072C16.658 19.6054 17.6098 20.8247 18.9646 21.1652L23.0343 22.1865C24.3908 22.5269 25.341 23.7463 25.341 25.1445C25.341 26.8294 23.9757 28.1929 22.2926 28.1929H19.913C18.1865 28.1929 16.7882 26.845 16.6771 25.1463" stroke="white" stroke-width="2.10294" stroke-linecap="round" stroke-linejoin="round"/>
</svg>
