<svg width="38" height="38" viewBox="0 0 38 38" fill="none" xmlns="http://www.w3.org/2000/svg">
<path fill-rule="evenodd" clip-rule="evenodd" d="M26.9168 18.9999C22.6941 23.3825 22.6941 30.449 26.9168 34.8316C31.1396 30.4505 31.1396 23.3825 26.9168 18.9999Z" stroke="white" stroke-width="2.02042" stroke-linecap="round" stroke-linejoin="round"/>
<path d="M4.75024 11.0833H33.2502" stroke="white" stroke-width="2.02042" stroke-linecap="round" stroke-linejoin="round"/>
<path d="M15.1527 17.4167H11.0835" stroke="white" stroke-width="2.02042" stroke-linecap="round" stroke-linejoin="round"/>
<path d="M14.2502 26.9167H9.50024C6.87666 26.9167 4.75024 24.7903 4.75024 22.1667V9.5C4.75024 6.87642 6.87666 4.75 9.50024 4.75H28.5002C31.1238 4.75 33.2502 6.87642 33.2502 9.5V15.8333" stroke="white" stroke-width="2.02042" stroke-linecap="round" stroke-linejoin="round"/>
<path fill-rule="evenodd" clip-rule="evenodd" d="M26.9168 19C22.6941 23.3827 22.6941 30.4491 26.9168 34.8317C31.1396 30.4507 31.1396 23.3827 26.9168 19Z" stroke="white" stroke-width="2.02042" stroke-linecap="round" stroke-linejoin="round"/>
<path fill-rule="evenodd" clip-rule="evenodd" d="M34.8333 26.9167C34.8333 31.2993 31.2993 34.8333 26.9167 34.8333C22.534 34.8333 19 31.2993 19 26.9167C19 22.534 22.534 19 26.9167 19C31.2993 19 34.8333 22.534 34.8333 26.9167Z" stroke="white" stroke-width="2.02042" stroke-linecap="round" stroke-linejoin="round"/>
<path d="M19.0034 26.9167H34.8304" stroke="white" stroke-width="2.02042" stroke-linecap="round" stroke-linejoin="round"/>
</svg>
