<svg width="21" height="20" viewBox="0 0 21 20" fill="none" xmlns="http://www.w3.org/2000/svg">
<path fill-rule="evenodd" clip-rule="evenodd" d="M6.28018 1H15.2892C17.7712 1 19.7842 3.012 19.7842 5.496V14.505C19.7842 16.987 17.7722 19 15.2882 19H6.28018C3.79718 19 1.78418 16.988 1.78418 14.504V5.496C1.78418 3.013 3.79618 1 6.28018 1V1Z" stroke="#07BCFF" stroke-width="2" stroke-linecap="round" stroke-linejoin="round"/>
<path d="M15.7331 4.71304C15.5471 4.71404 15.3961 4.86504 15.3961 5.05104C15.3961 5.23704 15.5481 5.38804 15.7341 5.38804C15.9201 5.38804 16.0711 5.23704 16.0711 5.05104C16.0721 4.86404 15.9201 4.71304 15.7331 4.71304" stroke="#07BCFF" stroke-width="2" stroke-linecap="round" stroke-linejoin="round"/>
<path d="M13.3297 7.45432C14.7356 8.86021 14.7356 11.1396 13.3297 12.5455C11.9238 13.9514 9.64439 13.9514 8.2385 12.5455C6.83261 11.1396 6.83261 8.86021 8.2385 7.45432C9.64439 6.04843 11.9238 6.04843 13.3297 7.45432" stroke="#07BCFF" stroke-width="2" stroke-linecap="round" stroke-linejoin="round"/>
</svg>
