<svg width="67" height="67" viewBox="0 0 67 67" fill="none" xmlns="http://www.w3.org/2000/svg">
<circle cx="33.5" cy="33.5" r="29.5" fill="#475567"/>
<circle cx="33.5" cy="33.5" r="31.5" stroke="#A6AEB8" stroke-opacity="0.2" stroke-width="4"/>
<path fill-rule="evenodd" clip-rule="evenodd" d="M25.1215 20.0981C22.2784 20.0981 19.9736 22.4029 19.9736 25.246V39.9933C19.9736 42.8363 22.2784 45.1411 25.1215 45.1411H41.474L44.5011 47.2713C44.8937 47.5476 45.4347 47.2668 45.4347 46.7867V45.1411H45.4594V25.246C45.4594 22.4029 43.1547 20.0981 40.3116 20.0981H25.1215Z" fill="white"/>
<path d="M41.474 45.1411L41.6591 44.878L41.5758 44.8194H41.474V45.1411ZM44.5011 47.2713L44.3159 47.5344H44.3159L44.5011 47.2713ZM45.4347 45.1411V44.8194H45.113V45.1411H45.4347ZM45.4594 45.1411V45.4628H45.7812V45.1411H45.4594ZM20.2954 25.246C20.2954 22.5806 22.4561 20.4199 25.1215 20.4199V19.7764C22.1007 19.7764 19.6519 22.2252 19.6519 25.246H20.2954ZM20.2954 39.9933V25.246H19.6519V39.9933H20.2954ZM25.1215 44.8194C22.4561 44.8194 20.2954 42.6587 20.2954 39.9933H19.6519C19.6519 43.014 22.1007 45.4628 25.1215 45.4628V44.8194ZM41.474 44.8194H25.1215V45.4628H41.474V44.8194ZM41.2888 45.4042L44.3159 47.5344L44.6862 47.0082L41.6591 44.878L41.2888 45.4042ZM44.3159 47.5344C44.9217 47.9607 45.7565 47.5274 45.7565 46.7867H45.113C45.113 47.0061 44.8657 47.1345 44.6862 47.0082L44.3159 47.5344ZM45.7565 46.7867V45.1411H45.113V46.7867H45.7565ZM45.4594 44.8194H45.4347V45.4628H45.4594V44.8194ZM45.1377 25.246V45.1411H45.7812V25.246H45.1377ZM40.3116 20.4199C42.977 20.4199 45.1377 22.5806 45.1377 25.246H45.7812C45.7812 22.2252 43.3323 19.7764 40.3116 19.7764V20.4199ZM25.1215 20.4199H40.3116V19.7764H25.1215V20.4199Z" fill="#A6AEB8" fill-opacity="0.2"/>
<path d="M23.8542 37.177C23.8542 37.177 26.3573 40.3627 32.5012 40.3627C37.9624 40.3627 41.3757 37.177 41.3757 37.177" stroke="#475567" stroke-width="2.57391" stroke-linecap="round"/>
</svg>
