<svg width="36" height="31" viewBox="0 0 36 31" fill="none" xmlns="http://www.w3.org/2000/svg">
<path d="M32 16V30" stroke="#7C8999" stroke-width="1.5" stroke-linecap="round" stroke-linejoin="round"/>
<path d="M22.7249 20.6725V30" stroke="#7C8999" stroke-width="1.5" stroke-linecap="round" stroke-linejoin="round"/>
<path d="M4 24.75V30" stroke="#7C8999" stroke-width="1.5" stroke-linecap="round" stroke-linejoin="round"/>
<path d="M13.2749 18.8V30" stroke="#7C8999" stroke-width="1.5" stroke-linecap="round" stroke-linejoin="round"/>
<path d="M24.8938 9.88997C26.0898 11.0859 26.0898 13.025 24.8938 14.221C23.6978 15.417 21.7587 15.417 20.5628 14.221C19.3668 13.025 19.3668 11.0859 20.5628 9.88997C21.7587 8.69399 23.6978 8.69399 24.8938 9.88997" stroke="white" stroke-width="1.5" stroke-linecap="round" stroke-linejoin="round"/>
<path d="M34.3491 2.00972C35.5451 3.2057 35.5451 5.14477 34.3491 6.34074C33.1531 7.53672 31.214 7.53672 30.0181 6.34074C28.8221 5.14476 28.8221 3.20569 30.0181 2.00972C31.2141 0.813737 33.1531 0.813737 34.3491 2.00972" stroke="white" stroke-width="1.5" stroke-linecap="round" stroke-linejoin="round"/>
<path d="M5.98167 11.4545C7.17765 12.6505 7.17765 14.5895 5.98167 15.7855C4.78569 16.9815 2.84662 16.9815 1.65065 15.7855C0.454667 14.5895 0.454667 12.6504 1.65065 11.4545C2.84663 10.2585 4.7857 10.2585 5.98167 11.4545" stroke="white" stroke-width="1.5" stroke-linecap="round" stroke-linejoin="round"/>
<path d="M15.4387 3.57594C16.6347 4.77192 16.6347 6.711 15.4387 7.90696C14.2427 9.10295 12.3036 9.10295 11.1077 7.90696C9.9117 6.71098 9.9117 4.77191 11.1077 3.57594C12.3037 2.37996 14.2427 2.37996 15.4387 3.57594" stroke="white" stroke-width="1.5" stroke-linecap="round" stroke-linejoin="round"/>
<path d="M29.8473 6.13L25.0698 10.1025" stroke="white" stroke-width="1.5" stroke-linecap="round" stroke-linejoin="round"/>
<path d="M20.17 10.365L15.8125 7.4425" stroke="white" stroke-width="1.5" stroke-linecap="round" stroke-linejoin="round"/>
<path d="M6.16992 11.6775L10.9299 7.70502" stroke="white" stroke-width="1.5" stroke-linecap="round" stroke-linejoin="round"/>
</svg>
