<svg width="328" height="48" viewBox="0 0 328 48" fill="none" xmlns="http://www.w3.org/2000/svg">
<path d="M78.6286 25.8482C76.0977 25.8482 74.0349 27.7733 74.0349 30.4247C74.0349 33.06 76.0977 35.0012 78.6286 35.0012C81.1606 35.0012 83.2234 33.06 83.2234 30.4247C83.2223 27.7733 81.1595 25.8482 78.6286 25.8482ZM78.6286 33.1999C77.2415 33.1999 76.046 32.056 76.046 30.4258C76.046 28.7783 77.2426 27.6517 78.6286 27.6517C80.0156 27.6517 81.2112 28.7783 81.2112 30.4258C81.2112 32.0549 80.0156 33.1999 78.6286 33.1999ZM68.6061 25.8482C66.0752 25.8482 64.0124 27.7733 64.0124 30.4247C64.0124 33.06 66.0752 35.0012 68.6061 35.0012C71.1381 35.0012 73.2009 33.06 73.2009 30.4247C73.2009 27.7733 71.1381 25.8482 68.6061 25.8482ZM68.6061 33.1999C67.2191 33.1999 66.0236 32.056 66.0236 30.4258C66.0236 28.7783 67.2202 27.6517 68.6061 27.6517C69.9932 27.6517 71.1887 28.7783 71.1887 30.4258C71.1898 32.0549 69.9932 33.1999 68.6061 33.1999ZM56.6855 27.2535V29.1947H61.3319C61.1931 30.287 60.8294 31.0843 60.2742 31.6385C59.5984 32.3143 58.5406 33.06 56.6855 33.06C53.8253 33.06 51.5892 30.754 51.5892 27.8938C51.5892 25.0336 53.8253 22.7276 56.6855 22.7276C58.2286 22.7276 59.3552 23.3345 60.187 24.1146L61.5568 22.7448C60.3947 21.6354 58.8527 20.7864 56.6855 20.7864C52.7675 20.7864 49.4737 23.9758 49.4737 27.8938C49.4737 31.8117 52.7675 35.0012 56.6855 35.0012C58.7999 35.0012 60.3958 34.3071 61.6429 33.0072C62.9256 31.7246 63.3248 29.9211 63.3248 28.4652C63.3248 28.0154 63.2904 27.5989 63.2204 27.2525H56.6855V27.2535ZM105.44 28.7611C105.059 27.7388 103.897 25.8482 101.522 25.8482C99.1642 25.8482 97.2047 27.7033 97.2047 30.4247C97.2047 32.99 99.147 35.0012 101.747 35.0012C103.844 35.0012 105.058 33.7185 105.561 32.9728L104.001 31.9323C103.481 32.6952 102.77 33.1977 101.747 33.1977C100.725 33.1977 99.996 32.7296 99.5279 31.8107L105.648 29.2798L105.44 28.7611ZM99.1986 30.287C99.147 28.5179 100.568 27.6172 101.592 27.6172C102.389 27.6172 103.065 28.0165 103.291 28.5878L99.1986 30.287ZM94.224 34.7246H96.2341V21.2728H94.224V34.7246ZM90.9291 26.8715H90.8602C90.4094 26.3335 89.542 25.8482 88.4509 25.8482C86.1621 25.8482 84.0649 27.8594 84.0649 30.443C84.0649 33.0083 86.1621 35.0023 88.4509 35.0023C89.5431 35.0023 90.4094 34.517 90.8602 33.9628H90.9291V34.6213C90.9291 36.3721 89.9929 37.3083 88.4853 37.3083C87.2543 37.3083 86.4914 36.4248 86.1793 35.6791L84.4286 36.4076C84.9311 37.6203 86.2654 39.1118 88.4853 39.1118C90.843 39.1118 92.837 37.7247 92.837 34.3437V26.1269H90.9302V26.8715H90.9291ZM88.6242 33.1999C87.2371 33.1999 86.076 32.0377 86.076 30.443C86.076 28.83 87.2371 27.6517 88.6242 27.6517C89.9929 27.6517 91.0679 28.83 91.0679 30.443C91.0679 32.0377 89.9929 33.1999 88.6242 33.1999ZM114.86 21.2728H110.049V34.7246H112.055V29.6284H114.859C117.084 29.6284 119.273 28.0175 119.273 25.4511C119.273 22.8847 117.085 21.2728 114.86 21.2728ZM114.911 27.756H112.055V23.1451H114.911C116.412 23.1451 117.265 24.388 117.265 25.4511C117.265 26.4927 116.412 27.756 114.911 27.756ZM127.321 25.8245C125.867 25.8245 124.361 26.4648 123.738 27.8841L125.52 28.6277C125.901 27.8841 126.611 27.6409 127.355 27.6409C128.393 27.6409 129.449 28.264 129.466 29.3712V29.51C129.102 29.3024 128.323 28.9914 127.372 28.9914C125.451 28.9914 123.495 30.047 123.495 32.0194C123.495 33.8197 125.07 34.9786 126.835 34.9786C128.185 34.9786 128.929 34.3728 129.396 33.6626H129.465V34.701H131.404V29.5434C131.405 27.1567 129.621 25.8245 127.321 25.8245ZM127.077 33.1966C126.421 33.1966 125.503 32.8674 125.503 32.0539C125.503 31.0155 126.646 30.6173 127.633 30.6173C128.514 30.6173 128.93 30.8078 129.466 31.0671C129.31 32.3143 128.237 33.1966 127.077 33.1966ZM138.465 26.1183L136.164 31.9506H136.095L133.706 26.1183H131.543L135.125 34.2695L133.083 38.804H135.177L140.698 26.1183H138.465ZM120.381 34.7246H122.388V21.2728H120.381V34.7246Z" fill="#29394A"/>
<path d="M56.3343 13.4647C56.3343 14.3665 56.0674 15.0842 55.5326 15.6201C54.9257 16.2571 54.1337 16.5756 53.161 16.5756C52.2291 16.5756 51.436 16.2528 50.785 15.6072C50.1329 14.9605 49.8069 14.1599 49.8069 13.2043C49.8069 12.2477 50.1329 11.4471 50.785 10.8015C51.436 10.1548 52.2291 9.83194 53.161 9.83194C53.6237 9.83194 54.0659 9.92233 54.4856 10.102C54.9064 10.2828 55.2432 10.5228 55.495 10.823L54.9279 11.3912C54.5007 10.88 53.9121 10.625 53.1599 10.625C52.4798 10.625 51.8923 10.8639 51.3962 11.3417C50.9002 11.8194 50.6527 12.4403 50.6527 13.2032C50.6527 13.9662 50.9002 14.5871 51.3962 15.0648C51.8923 15.5426 52.4798 15.7815 53.1599 15.7815C53.8809 15.7815 54.4824 15.5415 54.9634 15.0605C55.2754 14.7474 55.4562 14.3116 55.5046 13.7531H53.1599V12.9773H56.288C56.3203 13.1462 56.3343 13.3087 56.3343 13.4647Z" fill="#29394A"/>
<path d="M61.2951 10.7682H58.3552V12.8148H61.0067V13.5907H58.3552V15.6374H61.2951V16.4315H57.5256V9.97511H61.2951V10.7682Z" fill="#29394A"/>
<path d="M64.7932 16.4315H63.9636V10.7682H62.1601V9.97511H66.5967V10.7682H64.7932V16.4315Z" fill="#29394A"/>
<path d="M69.8066 16.4315V9.97511H70.6362V16.4315H69.8066Z" fill="#29394A"/>
<path d="M74.3154 16.4315H73.4858V10.7682H71.6823V9.97511H76.1189V10.7682H74.3154V16.4315Z" fill="#29394A"/>
<path d="M84.5174 15.5975C83.8825 16.2496 83.0937 16.5757 82.15 16.5757C81.2063 16.5757 80.4176 16.2496 79.7838 15.5975C79.1489 14.9454 78.8325 14.147 78.8325 13.2033C78.8325 12.2596 79.1489 11.4611 79.7838 10.8091C80.4176 10.157 81.2063 9.82983 82.15 9.82983C83.0884 9.82983 83.876 10.158 84.5131 10.8134C85.1501 11.4687 85.4686 12.265 85.4686 13.2033C85.4686 14.147 85.1512 14.9454 84.5174 15.5975ZM80.396 15.0563C80.8738 15.5405 81.4581 15.7815 82.15 15.7815C82.8419 15.7815 83.4273 15.5394 83.904 15.0563C84.3818 14.5721 84.6218 13.9544 84.6218 13.2033C84.6218 12.4522 84.3818 11.8345 83.904 11.3503C83.4273 10.8661 82.8419 10.625 82.15 10.625C81.4581 10.625 80.8738 10.8672 80.396 11.3503C79.9194 11.8345 79.6794 12.4522 79.6794 13.2033C79.6794 13.9544 79.9194 14.5721 80.396 15.0563Z" fill="#29394A"/>
<path d="M86.6329 16.4315V9.97511H87.6423L90.7801 14.9971H90.8156L90.7801 13.7532V9.97511H91.6097V16.4315H90.7435L87.4604 11.1652H87.4249L87.4604 12.4092V16.4315H86.6329Z" fill="#29394A"/>
<path d="M56.3343 13.4647C56.3343 14.3665 56.0674 15.0842 55.5326 15.6201C54.9257 16.2571 54.1337 16.5756 53.161 16.5756C52.2291 16.5756 51.436 16.2528 50.785 15.6072C50.1329 14.9605 49.8069 14.1599 49.8069 13.2043C49.8069 12.2477 50.1329 11.4471 50.785 10.8015C51.436 10.1548 52.2291 9.83194 53.161 9.83194C53.6237 9.83194 54.0659 9.92233 54.4856 10.102C54.9064 10.2828 55.2432 10.5228 55.495 10.823L54.9279 11.3912C54.5007 10.88 53.9121 10.625 53.1599 10.625C52.4798 10.625 51.8923 10.8639 51.3962 11.3417C50.9002 11.8194 50.6527 12.4403 50.6527 13.2032C50.6527 13.9662 50.9002 14.5871 51.3962 15.0648C51.8923 15.5426 52.4798 15.7815 53.1599 15.7815C53.8809 15.7815 54.4824 15.5415 54.9634 15.0605C55.2754 14.7474 55.4562 14.3116 55.5046 13.7531H53.1599V12.9773H56.288C56.3203 13.1462 56.3343 13.3087 56.3343 13.4647Z" stroke="#29394A" stroke-width="0.215213" stroke-miterlimit="10"/>
<path d="M61.2951 10.7682H58.3552V12.8148H61.0067V13.5907H58.3552V15.6374H61.2951V16.4315H57.5256V9.97511H61.2951V10.7682Z" stroke="#29394A" stroke-width="0.215213" stroke-miterlimit="10"/>
<path d="M64.7932 16.4315H63.9636V10.7682H62.1601V9.97511H66.5967V10.7682H64.7932V16.4315Z" stroke="#29394A" stroke-width="0.215213" stroke-miterlimit="10"/>
<path d="M69.8066 16.4315V9.97511H70.6362V16.4315H69.8066Z" stroke="#29394A" stroke-width="0.215213" stroke-miterlimit="10"/>
<path d="M74.3154 16.4315H73.4858V10.7682H71.6823V9.97511H76.1189V10.7682H74.3154V16.4315Z" stroke="#29394A" stroke-width="0.215213" stroke-miterlimit="10"/>
<path d="M84.5174 15.5975C83.8825 16.2496 83.0937 16.5757 82.15 16.5757C81.2063 16.5757 80.4176 16.2496 79.7838 15.5975C79.1489 14.9454 78.8325 14.147 78.8325 13.2033C78.8325 12.2596 79.1489 11.4611 79.7838 10.8091C80.4176 10.157 81.2063 9.82983 82.15 9.82983C83.0884 9.82983 83.876 10.158 84.5131 10.8134C85.1501 11.4687 85.4686 12.265 85.4686 13.2033C85.4686 14.147 85.1512 14.9454 84.5174 15.5975ZM80.396 15.0563C80.8738 15.5405 81.4581 15.7815 82.15 15.7815C82.8419 15.7815 83.4273 15.5394 83.904 15.0563C84.3818 14.5721 84.6218 13.9544 84.6218 13.2033C84.6218 12.4522 84.3818 11.8345 83.904 11.3503C83.4273 10.8661 82.8419 10.625 82.15 10.625C81.4581 10.625 80.8738 10.8672 80.396 11.3503C79.9194 11.8345 79.6794 12.4522 79.6794 13.2033C79.6794 13.9544 79.9194 14.5721 80.396 15.0563Z" stroke="#29394A" stroke-width="0.215213" stroke-miterlimit="10"/>
<path d="M86.6329 16.4315V9.97511H87.6423L90.7801 14.9971H90.8156L90.7801 13.7532V9.97511H91.6097V16.4315H90.7435L87.4604 11.1652H87.4249L87.4604 12.4092V16.4315H86.6329Z" stroke="#29394A" stroke-width="0.215213" stroke-miterlimit="10"/>
<path fill-rule="evenodd" clip-rule="evenodd" d="M16.2385 11.0154C16.1114 11.3032 16.0412 11.6559 16.0412 12.0661V35.8643C16.0412 36.2756 16.1115 36.6284 16.2388 36.9162L29.1881 23.965L16.2385 11.0154ZM16.9868 37.69C17.4668 37.8952 18.0928 37.8301 18.7755 37.4429L34.0094 28.7863L29.949 24.7259L16.9868 37.69ZM34.9804 28.2356L39.7598 25.5201C41.2631 24.6647 41.2631 23.2669 39.7598 22.4125L34.9786 19.6956L30.7099 23.965L34.9804 28.2356ZM34.0082 19.1443L18.7755 10.4886C18.0926 10.1006 17.4664 10.0358 16.9864 10.2416L29.949 23.2041L34.0082 19.1443Z" fill="#29394A"/>
<rect x="0.5" y="1.3418" width="154.826" height="45.1708" rx="6.56329" stroke="#A6AEB8"/>
<path d="M273.942 23.2478V25.7856H272.351V27.4498H273.942V33.1045C273.942 35.0354 274.815 35.8078 277.013 35.8078C277.399 35.8078 277.767 35.7618 278.088 35.7066V34.0608C277.813 34.0884 277.638 34.1067 277.334 34.1067C276.351 34.1067 275.918 33.647 275.918 32.5988V27.4498H278.088V25.7856H275.918V23.2478H273.942Z" fill="#29394A"/>
<path d="M283.686 35.9457C286.61 35.9457 288.403 33.9872 288.403 30.7415C288.403 27.5142 286.601 25.5465 283.686 25.5465C280.763 25.5465 278.96 27.5142 278.96 30.7415C278.96 33.9872 280.753 35.9457 283.686 35.9457ZM283.686 34.1895C281.967 34.1895 281.002 32.9298 281.002 30.7415C281.002 28.5715 281.967 27.3027 283.686 27.3027C285.397 27.3027 286.371 28.5715 286.371 30.7415C286.371 32.9206 285.397 34.1895 283.686 34.1895Z" fill="#29394A"/>
<path d="M289.937 35.7526H291.914V29.8404C291.914 28.4336 292.972 27.4866 294.47 27.4866C294.82 27.4866 295.408 27.5509 295.574 27.6061V25.6568C295.362 25.6017 294.985 25.5741 294.691 25.5741C293.385 25.5741 292.273 26.2913 291.988 27.2751H291.841V25.7396H289.937V35.7526Z" fill="#29394A"/>
<path d="M300.482 27.2291C301.944 27.2291 302.9 28.2497 302.946 29.822H297.889C298 28.2589 299.02 27.2291 300.482 27.2291ZM302.937 33.0494C302.569 33.8309 301.751 34.2631 300.556 34.2631C298.974 34.2631 297.954 33.1505 297.889 31.3943V31.284H304.96V30.5944C304.96 27.4498 303.277 25.5465 300.491 25.5465C297.669 25.5465 295.876 27.5785 295.876 30.7783C295.876 33.978 297.632 35.9457 300.501 35.9457C302.79 35.9457 304.39 34.8423 304.84 33.0494H302.937Z" fill="#29394A"/>
<path d="M260.978 32.0549C261.13 34.5137 263.179 36.0861 266.229 36.0861C269.488 36.0861 271.527 34.4374 271.527 31.8072C271.527 29.7392 270.365 28.5956 267.544 27.938L266.029 27.5663C264.237 27.147 263.513 26.5847 263.513 25.6031C263.513 24.3642 264.637 23.5542 266.324 23.5542C267.925 23.5542 269.031 24.3452 269.231 25.6127H271.308C271.184 23.2969 269.145 21.6672 266.353 21.6672C263.351 21.6672 261.349 23.2969 261.349 25.7461C261.349 27.7664 262.483 28.9672 264.971 29.5486L266.743 29.9774C268.564 30.4063 269.364 31.0352 269.364 32.0835C269.364 33.3034 268.106 34.1897 266.391 34.1897C264.551 34.1897 263.274 33.3606 263.093 32.0549H260.978Z" fill="#29394A"/>
<path d="M240.499 25.5741C239.139 25.5741 237.962 26.2545 237.355 27.3946H237.208V25.7396H235.304V39.0811H237.281V34.2355H237.438C237.962 35.2929 239.093 35.9181 240.518 35.9181C243.046 35.9181 244.655 33.9228 244.655 30.7415C244.655 27.5601 243.046 25.5741 240.499 25.5741ZM239.939 34.1435C238.284 34.1435 237.245 32.8379 237.245 30.7507C237.245 28.6543 238.284 27.3487 239.948 27.3487C241.621 27.3487 242.623 28.6267 242.623 30.7415C242.623 32.8655 241.621 34.1435 239.939 34.1435Z" fill="#29394A"/>
<path d="M251.573 25.5741C250.212 25.5741 249.035 26.2545 248.428 27.3946H248.281V25.7396H246.378V39.0811H248.355V34.2355H248.511C249.035 35.2929 250.166 35.9181 251.591 35.9181C254.12 35.9181 255.729 33.9228 255.729 30.7415C255.729 27.5601 254.12 25.5741 251.573 25.5741ZM251.012 34.1435C249.357 34.1435 248.318 32.8379 248.318 30.7507C248.318 28.6543 249.357 27.3487 251.021 27.3487C252.695 27.3487 253.697 28.6267 253.697 30.7415C253.697 32.8655 252.695 34.1435 251.012 34.1435Z" fill="#29394A"/>
<path d="M231.758 35.7526H234.026L229.061 22.0008H226.764L221.799 35.7526H223.991L225.258 32.1026H230.5L231.758 35.7526ZM227.803 24.4976H227.965L229.956 30.311H225.801L227.803 24.4976Z" fill="#29394A"/>
<path d="M223.127 11.6287V18.2626H225.522C227.499 18.2626 228.643 17.0443 228.643 14.9249C228.643 12.8378 227.489 11.6287 225.522 11.6287H223.127ZM224.156 12.5665H225.407C226.781 12.5665 227.595 13.44 227.595 14.9387C227.595 16.4605 226.795 17.3248 225.407 17.3248H224.156V12.5665Z" fill="#29394A"/>
<path d="M232.149 18.3592C233.611 18.3592 234.508 17.3799 234.508 15.7571C234.508 14.1434 233.607 13.1596 232.149 13.1596C230.687 13.1596 229.786 14.1434 229.786 15.7571C229.786 17.3799 230.683 18.3592 232.149 18.3592ZM232.149 17.4811C231.29 17.4811 230.807 16.8512 230.807 15.7571C230.807 14.6721 231.29 14.0377 232.149 14.0377C233.004 14.0377 233.492 14.6721 233.492 15.7571C233.492 16.8466 233.004 17.4811 232.149 17.4811Z" fill="#29394A"/>
<path d="M242.142 13.2561H241.154L240.262 17.0765H240.184L239.154 13.2561H238.207L237.177 17.0765H237.103L236.207 13.2561H235.205L236.584 18.2626H237.6L238.63 14.5755H238.708L239.742 18.2626H240.767L242.142 13.2561Z" fill="#29394A"/>
<path d="M243.28 18.2626H244.269V15.3341C244.269 14.5526 244.733 14.0652 245.464 14.0652C246.195 14.0652 246.545 14.4652 246.545 15.2697V18.2626H247.533V15.0215C247.533 13.8308 246.917 13.1596 245.8 13.1596C245.046 13.1596 244.549 13.4952 244.306 14.0515H244.232V13.2561H243.28V18.2626Z" fill="#29394A"/>
<path d="M249.09 18.2626H250.078V11.3022H249.09V18.2626Z" fill="#29394A"/>
<path d="M253.795 18.3592C255.257 18.3592 256.154 17.3799 256.154 15.7571C256.154 14.1434 255.253 13.1596 253.795 13.1596C252.333 13.1596 251.432 14.1434 251.432 15.7571C251.432 17.3799 252.329 18.3592 253.795 18.3592ZM253.795 17.4811C252.936 17.4811 252.453 16.8512 252.453 15.7571C252.453 14.6721 252.936 14.0377 253.795 14.0377C254.651 14.0377 255.138 14.6721 255.138 15.7571C255.138 16.8466 254.651 17.4811 253.795 17.4811Z" fill="#29394A"/>
<path d="M259.099 17.5132C258.561 17.5132 258.17 17.2512 258.17 16.8007C258.17 16.3593 258.483 16.1249 259.172 16.0789L260.395 16.0007V16.4191C260.395 17.0397 259.844 17.5132 259.099 17.5132ZM258.846 18.3454C259.503 18.3454 260.051 18.0603 260.349 17.5592H260.428V18.2626H261.379V14.8422C261.379 13.7848 260.671 13.1596 259.416 13.1596C258.281 13.1596 257.471 13.7113 257.37 14.571H258.327C258.437 14.217 258.818 14.0147 259.37 14.0147C260.046 14.0147 260.395 14.3135 260.395 14.8422V15.2743L259.039 15.3525C257.848 15.4261 257.177 15.9456 257.177 16.8466C257.177 17.7615 257.881 18.3454 258.846 18.3454Z" fill="#29394A"/>
<path d="M264.733 18.3454C265.423 18.3454 266.007 18.019 266.306 17.4719H266.384V18.2626H267.331V11.3022H266.342V14.0515H266.269C265.998 13.4998 265.418 13.1734 264.733 13.1734C263.469 13.1734 262.655 14.1756 262.655 15.7571C262.655 17.3431 263.46 18.3454 264.733 18.3454ZM265.014 14.0606C265.841 14.0606 266.361 14.7181 266.361 15.7617C266.361 16.8099 265.846 17.4581 265.014 17.4581C264.177 17.4581 263.676 16.8191 263.676 15.7571C263.676 14.7043 264.182 14.0606 265.014 14.0606Z" fill="#29394A"/>
<path d="M273.741 18.3592C275.202 18.3592 276.099 17.3799 276.099 15.7571C276.099 14.1434 275.198 13.1596 273.741 13.1596C272.279 13.1596 271.377 14.1434 271.377 15.7571C271.377 17.3799 272.274 18.3592 273.741 18.3592ZM273.741 17.4811C272.881 17.4811 272.398 16.8512 272.398 15.7571C272.398 14.6721 272.881 14.0377 273.741 14.0377C274.596 14.0377 275.083 14.6721 275.083 15.7571C275.083 16.8466 274.596 17.4811 273.741 17.4811Z" fill="#29394A"/>
<path d="M277.407 18.2626H278.396V15.3341C278.396 14.5526 278.86 14.0652 279.591 14.0652C280.322 14.0652 280.671 14.4652 280.671 15.2697V18.2626H281.66V15.0215C281.66 13.8308 281.044 13.1596 279.927 13.1596C279.173 13.1596 278.676 13.4952 278.433 14.0515H278.359V13.2561H277.407V18.2626Z" fill="#29394A"/>
<path d="M286.212 12.0102V13.2791H285.417V14.1112H286.212V16.9386C286.212 17.904 286.649 18.2902 287.748 18.2902C287.941 18.2902 288.125 18.2672 288.286 18.2396V17.4167C288.148 17.4305 288.06 17.4397 287.909 17.4397C287.417 17.4397 287.201 17.2098 287.201 16.6857V14.1112H288.286V13.2791H287.201V12.0102H286.212Z" fill="#29394A"/>
<path d="M289.612 18.2626H290.601V15.3387C290.601 14.5801 291.051 14.0698 291.86 14.0698C292.559 14.0698 292.932 14.4744 292.932 15.2743V18.2626H293.92V15.0307C293.92 13.84 293.263 13.1642 292.196 13.1642C291.442 13.1642 290.913 13.4998 290.67 14.0606H290.592V11.3022H289.612V18.2626Z" fill="#29394A"/>
<path d="M297.486 14.0009C298.217 14.0009 298.695 14.5112 298.718 15.2973H296.189C296.244 14.5158 296.755 14.0009 297.486 14.0009ZM298.713 16.911C298.529 17.3018 298.12 17.5178 297.523 17.5178C296.732 17.5178 296.221 16.9616 296.189 16.0835V16.0283H299.725V15.6835C299.725 14.1112 298.883 13.1596 297.49 13.1596C296.079 13.1596 295.182 14.1756 295.182 15.7755C295.182 17.3753 296.061 18.3592 297.495 18.3592C298.64 18.3592 299.44 17.8075 299.665 16.911H298.713Z" fill="#29394A"/>
<path d="M211.073 24.4666C211.096 22.6046 212.096 20.8427 213.683 19.8674C212.682 18.4381 211.006 17.5319 209.262 17.4774C207.402 17.2821 205.599 18.5904 204.651 18.5904C203.684 18.5904 202.225 17.4967 200.654 17.5291C198.605 17.5953 196.696 18.7599 195.699 20.5507C193.557 24.2597 195.155 29.7107 197.207 32.7088C198.233 34.1768 199.433 35.8167 201.004 35.7586C202.54 35.6948 203.114 34.7788 204.968 34.7788C206.806 34.7788 207.344 35.7586 208.946 35.7216C210.595 35.6948 211.633 34.247 212.624 32.765C213.362 31.719 213.93 30.5628 214.306 29.3395C212.369 28.52 211.075 26.5702 211.073 24.4666Z" fill="#29394A"/>
<path d="M208.047 15.5057C208.946 14.4266 209.388 13.0395 209.281 11.6392C207.908 11.7834 206.639 12.4398 205.728 13.4775C204.837 14.4914 204.374 15.854 204.461 17.2009C205.835 17.215 207.186 16.5764 208.047 15.5057Z" fill="#29394A"/>
<rect x="172.436" y="1.3418" width="155.064" height="45.5742" rx="6.56329" stroke="#A6AEB8"/>
</svg>
